<svg width="140" height="37" viewBox="0 0 140 37" fill="none" xmlns="http://www.w3.org/2000/svg">
<g filter="url(#filter0_d_511_7)">
<path d="M63.5 2C68.3472 2.0001 113.51 2.00004 131.066 2.00001C134.152 2.00001 136.038 5.33512 134.44 7.97469C129.9 15.4694 122.366 27.4604 120.083 28.3934C117.259 29.5472 65.5533 28.7502 49.6288 28.4762C47.4529 28.4387 46.0678 26.1778 47.0576 24.2396C50.8535 16.8066 58.982 1.99991 63.5 2Z" fill="#67AB8A"/>
</g>
<path d="M7.008 23.192C5.488 23.192 4.304 22.808 3.456 22.04C2.608 21.256 2.184 20.096 2.184 18.56V7.232H5.928V18.512C5.928 19.056 6.072 19.48 6.36 19.784C6.648 20.072 7.04 20.216 7.536 20.216C8.128 20.216 8.632 20.056 9.048 19.736L10.056 22.376C9.672 22.648 9.208 22.856 8.664 23C8.136 23.128 7.584 23.192 7.008 23.192ZM0.192 13.256V10.376H9.144V13.256H0.192ZM10.4777 23V10.088H14.2217V23H10.4777ZM12.3497 8.288C11.6617 8.288 11.1017 8.088 10.6697 7.688C10.2377 7.288 10.0217 6.792 10.0217 6.2C10.0217 5.608 10.2377 5.112 10.6697 4.712C11.1017 4.312 11.6617 4.112 12.3497 4.112C13.0377 4.112 13.5977 4.304 14.0297 4.688C14.4617 5.056 14.6777 5.536 14.6777 6.128C14.6777 6.752 14.4617 7.272 14.0297 7.688C13.6137 8.088 13.0537 8.288 12.3497 8.288ZM22.2564 23.192C20.8644 23.192 19.6244 22.912 18.5364 22.352C17.4484 21.776 16.5924 20.984 15.9684 19.976C15.3604 18.968 15.0564 17.824 15.0564 16.544C15.0564 15.248 15.3604 14.104 15.9684 13.112C16.5924 12.104 17.4484 11.32 18.5364 10.76C19.6244 10.184 20.8644 9.896 22.2564 9.896C23.6164 9.896 24.8004 10.184 25.8084 10.76C26.8164 11.32 27.5604 12.128 28.0404 13.184L25.1364 14.744C24.8004 14.136 24.3764 13.688 23.8644 13.4C23.3684 13.112 22.8244 12.968 22.2324 12.968C21.5924 12.968 21.0164 13.112 20.5044 13.4C19.9924 13.688 19.5844 14.096 19.2804 14.624C18.9924 15.152 18.8484 15.792 18.8484 16.544C18.8484 17.296 18.9924 17.936 19.2804 18.464C19.5844 18.992 19.9924 19.4 20.5044 19.688C21.0164 19.976 21.5924 20.12 22.2324 20.12C22.8244 20.12 23.3684 19.984 23.8644 19.712C24.3764 19.424 24.8004 18.968 25.1364 18.344L28.0404 19.928C27.5604 20.968 26.8164 21.776 25.8084 22.352C24.8004 22.912 23.6164 23.192 22.2564 23.192ZM31.5418 20.36L31.6378 15.8L37.6618 10.088H42.1258L36.3418 15.968L34.3978 17.552L31.5418 20.36ZM28.4458 23V5.192H32.1898V23H28.4458ZM38.0698 23L33.7018 17.576L36.0538 14.672L42.6058 23H38.0698ZM48.4785 23.192C47.0065 23.192 45.7105 22.904 44.5905 22.328C43.4865 21.752 42.6305 20.968 42.0225 19.976C41.4145 18.968 41.1105 17.824 41.1105 16.544C41.1105 15.248 41.4065 14.104 41.9985 13.112C42.6065 12.104 43.4305 11.32 44.4705 10.76C45.5105 10.184 46.6865 9.896 47.9985 9.896C49.2625 9.896 50.3985 10.168 51.4065 10.712C52.4305 11.24 53.2385 12.008 53.8305 13.016C54.4225 14.008 54.7185 15.2 54.7185 16.592C54.7185 16.736 54.7105 16.904 54.6945 17.096C54.6785 17.272 54.6625 17.44 54.6465 17.6H44.1585V15.416H52.6785L51.2385 16.064C51.2385 15.392 51.1025 14.808 50.8305 14.312C50.5585 13.816 50.1825 13.432 49.7025 13.16C49.2225 12.872 48.6625 12.728 48.0225 12.728C47.3825 12.728 46.8145 12.872 46.3185 13.16C45.8385 13.432 45.4625 13.824 45.1905 14.336C44.9185 14.832 44.7825 15.424 44.7825 16.112V16.688C44.7825 17.392 44.9345 18.016 45.2385 18.56C45.5585 19.088 45.9985 19.496 46.5585 19.784C47.1345 20.056 47.8065 20.192 48.5745 20.192C49.2625 20.192 49.8625 20.088 50.3745 19.88C50.9025 19.672 51.3825 19.36 51.8145 18.944L53.8065 21.104C53.2145 21.776 52.4705 22.296 51.5745 22.664C50.6785 23.016 49.6465 23.192 48.4785 23.192ZM60.8111 23.192C59.2911 23.192 58.1071 22.808 57.2591 22.04C56.4111 21.256 55.9871 20.096 55.9871 18.56V7.232H59.7311V18.512C59.7311 19.056 59.8751 19.48 60.1631 19.784C60.4511 20.072 60.8431 20.216 61.3391 20.216C61.9311 20.216 62.4351 20.056 62.8511 19.736L63.8591 22.376C63.4751 22.648 63.0111 22.856 62.4671 23C61.9391 23.128 61.3871 23.192 60.8111 23.192ZM53.9951 13.256V10.376H62.9471V13.256H53.9951Z" fill="black"/>
<path d="M66.9984 23L62.3424 10.088H65.8704L69.7344 21.2H68.0544L72.0864 10.088H75.2544L79.1664 21.2H77.4864L81.4704 10.088H84.7824L80.1024 23H76.4784L73.0464 13.472H74.1504L70.5984 23H66.9984ZM92.3411 23V20.48L92.1011 19.928V15.416C92.1011 14.616 91.8531 13.992 91.3571 13.544C90.8771 13.096 90.1331 12.872 89.1251 12.872C88.4371 12.872 87.7571 12.984 87.0851 13.208C86.4291 13.416 85.8691 13.704 85.4051 14.072L84.0611 11.456C84.7651 10.96 85.6131 10.576 86.6051 10.304C87.5971 10.032 88.6051 9.896 89.6291 9.896C91.5971 9.896 93.1251 10.36 94.2131 11.288C95.3011 12.216 95.8451 13.664 95.8451 15.632V23H92.3411ZM88.4051 23.192C87.3971 23.192 86.5331 23.024 85.8131 22.688C85.0931 22.336 84.5411 21.864 84.1571 21.272C83.7731 20.68 83.5811 20.016 83.5811 19.28C83.5811 18.512 83.7651 17.84 84.1331 17.264C84.5171 16.688 85.1171 16.24 85.9331 15.92C86.7491 15.584 87.8131 15.416 89.1251 15.416H92.5571V17.6H89.5331C88.6531 17.6 88.0451 17.744 87.7091 18.032C87.3891 18.32 87.2291 18.68 87.2291 19.112C87.2291 19.592 87.4131 19.976 87.7811 20.264C88.1651 20.536 88.6851 20.672 89.3411 20.672C89.9651 20.672 90.5251 20.528 91.0211 20.24C91.5171 19.936 91.8771 19.496 92.1011 18.92L92.6771 20.648C92.4051 21.48 91.9091 22.112 91.1891 22.544C90.4691 22.976 89.5411 23.192 88.4051 23.192ZM100.823 23L95.3992 10.088H99.2632L103.775 21.2H101.855L106.535 10.088H110.135L104.687 23H100.823ZM116.039 23.192C114.567 23.192 113.271 22.904 112.151 22.328C111.047 21.752 110.191 20.968 109.583 19.976C108.975 18.968 108.671 17.824 108.671 16.544C108.671 15.248 108.967 14.104 109.559 13.112C110.167 12.104 110.991 11.32 112.031 10.76C113.071 10.184 114.247 9.896 115.559 9.896C116.823 9.896 117.959 10.168 118.967 10.712C119.991 11.24 120.799 12.008 121.391 13.016C121.983 14.008 122.279 15.2 122.279 16.592C122.279 16.736 122.271 16.904 122.255 17.096C122.239 17.272 122.223 17.44 122.207 17.6H111.719V15.416H120.239L118.799 16.064C118.799 15.392 118.663 14.808 118.391 14.312C118.119 13.816 117.743 13.432 117.263 13.16C116.783 12.872 116.223 12.728 115.583 12.728C114.943 12.728 114.375 12.872 113.879 13.16C113.399 13.432 113.023 13.824 112.751 14.336C112.479 14.832 112.343 15.424 112.343 16.112V16.688C112.343 17.392 112.495 18.016 112.799 18.56C113.119 19.088 113.559 19.496 114.119 19.784C114.695 20.056 115.367 20.192 116.135 20.192C116.823 20.192 117.423 20.088 117.935 19.88C118.463 19.672 118.943 19.36 119.375 18.944L121.367 21.104C120.775 21.776 120.031 22.296 119.135 22.664C118.239 23.016 117.207 23.192 116.039 23.192Z" fill="white"/>
<defs>
<filter id="filter0_d_511_7" x="42.7321" y="2" width="96.2888" height="35" filterUnits="userSpaceOnUse" color-interpolation-filters="sRGB">
<feFlood flood-opacity="0" result="BackgroundImageFix"/>
<feColorMatrix in="SourceAlpha" type="matrix" values="0 0 0 0 0 0 0 0 0 0 0 0 0 0 0 0 0 0 127 0" result="hardAlpha"/>
<feOffset dy="4"/>
<feGaussianBlur stdDeviation="2"/>
<feComposite in2="hardAlpha" operator="out"/>
<feColorMatrix type="matrix" values="0 0 0 0 0 0 0 0 0 0 0 0 0 0 0 0 0 0 0.25 0"/>
<feBlend mode="normal" in2="BackgroundImageFix" result="effect1_dropShadow_511_7"/>
<feBlend mode="normal" in="SourceGraphic" in2="effect1_dropShadow_511_7" result="shape"/>
</filter>
</defs>
</svg>
